<svg width="72" height="35" viewBox="0 0 72 35" fill="none" xmlns="http://www.w3.org/2000/svg">
<path d="M34.9899 0.107666C34.0125 0.425902 33.1667 1.17469 32.725 2.11068L32.4712 2.64419L32.443 8.84043C32.4242 14.915 32.4242 15.046 32.6122 15.617C32.8659 16.3564 33.2513 16.918 33.7964 17.3298C35.0839 18.3126 36.9166 18.3033 38.2041 17.3205C38.7586 16.8993 39.3319 16.0194 39.4729 15.3923C39.5481 15.0554 39.5669 13.0617 39.5481 8.77491L39.5199 2.64419L39.2285 2.0358C38.862 1.27765 38.2887 0.706698 37.5181 0.332303C37.02 0.0889464 36.785 0.0327871 36.1553 0.00470752C35.676 -0.0140122 35.2343 0.0234273 34.9899 0.107666ZM37.1985 1.10917C37.5181 1.26829 37.9222 1.56781 38.1008 1.77372C38.7398 2.51315 38.7304 2.34468 38.7022 9.20546C38.674 15.3268 38.674 15.3736 38.4673 15.748C37.753 17.0584 36.0707 17.6293 34.8114 16.9835C34.5482 16.8525 34.1535 16.5436 33.9467 16.3096C33.2513 15.5234 33.2701 15.748 33.2701 8.97146V2.92499L33.4956 2.45699C33.8151 1.77372 34.1441 1.42741 34.7926 1.10917C35.6008 0.697338 36.3903 0.697338 37.1985 1.10917Z" fill="#9C0746"/>
<path d="M35.2531 1.78302C34.7643 1.93278 34.1535 2.56925 34.0219 3.0466C33.8997 3.52395 33.9561 3.87963 34.2662 4.48802C34.5764 5.09641 34.567 5.7048 34.238 6.30384C33.8997 6.93095 33.8997 7.53934 34.238 8.16645C34.4166 8.49404 34.4918 8.77484 34.4918 9.10244C34.4918 9.43003 34.4166 9.71083 34.238 10.0384C33.8997 10.6655 33.8997 11.2739 34.238 11.901C34.5576 12.4814 34.5764 13.1553 34.2944 13.6888C33.8057 14.5873 33.8809 15.28 34.5294 15.9258C35.7042 17.0958 37.8658 16.478 38.1101 14.9056C38.1571 14.5405 38.1289 14.3814 37.8846 13.8573C37.518 13.0897 37.4992 12.5469 37.8282 11.9385C38.2135 11.2178 38.2229 10.8434 37.8846 10.1414C37.5086 9.36451 37.4992 8.85908 37.847 8.18517C38.1853 7.52998 38.1853 6.92159 37.847 6.30384C37.518 5.7048 37.5086 5.09641 37.8188 4.48802C38.2887 3.55203 38.2135 2.89684 37.5556 2.26973C36.9635 1.69878 36.0895 1.52094 35.2531 1.78302Z" fill="#9C0746"/>
<path d="M47.8374 17.1522V17.9478L59.8954 17.929L71.9439 17.901L71.9721 17.1241L72.0003 16.3566H59.9142H47.8374V17.1522Z" fill="#9C0746"/>
<path d="M0.000488281 17.3392V18.1348H12.0772H24.154V17.3392V16.5436H12.0772H0.000488281V17.3392Z" fill="#9C0746"/>
<path d="M6.29755 20.9614C5.85583 21.0082 5.17916 21.0643 4.79383 21.0924C4.13595 21.1392 3.854 21.2422 3.854 21.4106C3.854 21.4574 3.98558 21.5136 4.13595 21.551L4.4179 21.6166V23.6009C4.4179 24.696 4.44609 26.7926 4.47429 28.2527L4.54008 30.9109L4.23933 31.0232C3.854 31.1636 3.82581 31.4725 4.21114 31.3883C4.35211 31.3602 5.13217 31.304 5.94981 31.2759C6.96482 31.2291 7.45353 31.173 7.52872 31.0887C7.6603 30.9296 7.53812 30.3025 7.36895 30.3025C7.30316 30.3025 7.21858 30.4429 7.19038 30.6208C7.12459 30.9296 7.1152 30.939 6.5607 31.0045C6.25056 31.0419 5.95921 31.0326 5.92162 30.9951C5.87463 30.9484 5.80884 30.0124 5.77125 28.9079L5.70546 26.9049L6.33514 26.9517L6.95543 27.0078V26.727C6.95543 26.465 6.93663 26.4463 6.70167 26.5118C6.34454 26.596 5.73365 26.6802 5.73365 26.6428C5.61148 24.9019 5.56449 23.0112 5.61148 22.2717C5.67726 21.2047 5.63967 21.2515 6.48551 21.2047C6.86144 21.1766 6.91783 21.2047 7.03061 21.4387C7.0964 21.5791 7.19038 21.6727 7.24677 21.6446C7.37835 21.5604 7.35015 20.849 7.21858 20.8678C7.15279 20.8771 6.73927 20.9146 6.29755 20.9614Z" fill="#9C0746"/>
<path d="M44.4069 20.9615C43.9934 21.0083 43.2979 21.0738 42.8562 21.1113C42.1983 21.1674 42.0574 21.2049 42.0292 21.3453C42.001 21.4576 42.0762 21.5231 42.2735 21.5605L42.5555 21.6167L42.5649 24.771C42.5649 26.5025 42.6025 28.5804 42.6307 29.3854L42.6964 30.8549L42.4709 30.9485C42.2171 31.0421 41.954 31.3042 42.0292 31.3884C42.0574 31.4165 42.4333 31.3884 42.8656 31.3322C43.2979 31.2854 44.0498 31.2386 44.5479 31.2386C45.0366 31.2386 45.4971 31.2012 45.5629 31.1544C45.7227 31.0608 45.6757 30.3775 45.5159 30.3307C45.4501 30.3027 45.3655 30.4243 45.3186 30.6022C45.234 30.9298 45.046 31.014 44.3505 31.0421C44.031 31.0514 44.0028 31.0327 43.9558 30.7426C43.9276 30.5834 43.8994 29.6475 43.89 28.674L43.8806 26.905L44.4915 26.9518L45.1118 27.008V26.7272C45.1118 26.4651 45.093 26.4464 44.858 26.5119C44.7077 26.5493 44.4257 26.5868 44.219 26.5961L43.843 26.6055L43.7866 25.5759C43.7021 24.1626 43.6927 22.094 43.7584 21.6729C43.8242 21.2985 43.8618 21.2797 44.5761 21.1768C44.9896 21.1206 45.0272 21.1393 45.1024 21.3453C45.2246 21.6635 45.3655 21.729 45.4407 21.5137C45.5159 21.2704 45.4031 20.8492 45.2622 20.8679C45.2058 20.8773 44.8204 20.9147 44.4069 20.9615Z" fill="#9C0746"/>
<path d="M32.9693 21.4016C32.5651 21.6543 32.537 21.7011 32.4336 22.2627C32.3772 22.5903 32.302 23.3297 32.2644 23.91L32.208 24.949L31.7757 25.0332C31.428 25.0894 31.334 25.1549 31.3152 25.3234C31.287 25.5293 31.428 25.6042 31.5313 25.4357C31.5595 25.3795 31.7381 25.3421 31.9167 25.3421H32.2362V26.8771C32.2362 29.2171 32.49 30.5462 33.0257 30.9112C33.3358 31.1358 33.8997 31.089 34.0595 30.8363C34.238 30.5742 34.379 29.9378 34.4072 29.2826C34.4354 28.7397 34.3602 28.6274 34.0877 28.8333C33.9373 28.9363 33.9279 28.9831 34.0501 29.1983C34.2192 29.5259 34.1159 30.3215 33.8809 30.5836C33.6459 30.8363 33.3452 30.7895 33.2606 30.49C33.176 30.1718 33.1572 25.417 33.2512 25.2766C33.3452 25.1268 33.9843 25.0238 34.0595 25.1455C34.1628 25.314 34.3038 25.2672 34.3038 25.0613C34.3038 24.8741 34.2756 24.8647 33.6271 24.8366C33.4862 24.8273 33.3452 24.7898 33.317 24.7618C33.2606 24.715 33.4298 22.974 33.6177 21.4765C33.6741 21.0459 33.5614 21.0272 32.9693 21.4016Z" fill="#9C0746"/>
<path d="M51.4091 21.336C51.193 21.8508 50.9956 22.8897 50.6103 25.576C50.3095 27.682 50.4693 29.582 51.0332 30.7333C51.4843 31.6505 52.1234 31.8284 52.7061 31.2106C52.9974 30.9017 53.1478 30.2185 53.0444 29.685C52.9504 29.1983 52.7155 28.9643 52.5181 29.1608C52.4147 29.2638 52.4335 29.3199 52.6215 29.4697C52.8189 29.6288 52.8377 29.7037 52.7907 30.1436C52.7249 30.6865 52.4805 31.0796 52.1798 31.1264C52.0106 31.1545 51.9542 31.0796 51.8414 30.6584C51.4185 29.217 51.5125 26.1095 52.0858 22.6089C52.1892 21.9537 52.255 21.3547 52.2174 21.2704C52.1892 21.1862 52.0482 21.13 51.832 21.13C51.5783 21.13 51.4749 21.1768 51.4091 21.336Z" fill="#9C0746"/>
<path d="M23.4867 22.5434C23.3457 22.6838 23.3081 22.8055 23.3551 22.9833C23.5055 23.6104 23.9378 23.601 24.0976 22.9739C24.2386 22.4123 23.8814 22.1503 23.4867 22.5434Z" fill="#9C0746"/>
<path d="M29.5956 22.5434C29.4546 22.6838 29.417 22.8055 29.464 22.9833C29.6144 23.6104 30.0467 23.601 30.2065 22.9739C30.3475 22.4123 29.9903 22.1503 29.5956 22.5434Z" fill="#9C0746"/>
<path d="M59.1063 22.5434C58.9654 22.6838 58.9278 22.8055 58.9748 22.9833C59.1251 23.6104 59.5575 23.601 59.7172 22.9739C59.8582 22.4123 59.5011 22.1503 59.1063 22.5434Z" fill="#9C0746"/>
<path d="M49.2378 24.6025C49.1439 24.7429 48.9653 24.8178 48.6457 24.8459C48.0631 24.9114 47.3864 25.3607 47.1138 25.8567C46.8413 26.3622 46.6157 27.5134 46.6157 28.412C46.6157 29.5539 47.0104 30.5835 47.5368 30.78C47.8845 30.9204 48.6457 30.8362 48.8713 30.6303C49.0217 30.4899 49.0781 30.4899 49.2002 30.5835C49.3224 30.6864 49.3412 30.6115 49.3412 29.9657C49.3318 29.2918 49.3224 29.245 49.2002 29.4041C49.1251 29.5071 49.0593 29.6568 49.0593 29.7411C49.0593 29.9657 48.7961 30.2839 48.486 30.4524C48.2322 30.5835 48.1758 30.5835 47.9785 30.4524C47.7999 30.3401 47.7529 30.1997 47.7059 29.6756C47.6025 28.6366 47.7811 26.4745 48.0067 25.9597C48.251 25.4168 48.6082 25.0611 48.9183 25.0611C49.1063 25.0611 49.1533 25.1079 49.1533 25.3045C49.1533 25.707 49.3224 25.4636 49.3882 24.9582C49.4634 24.4153 49.4258 24.3217 49.2378 24.6025Z" fill="#9C0746"/>
<path d="M27.8849 24.7711C27.7909 24.9209 27.6594 24.9583 27.274 24.949C26.8605 24.9396 26.7289 24.9771 26.4282 25.2204C25.432 26.0066 25.5448 27.3825 26.6819 28.3279C27.4338 28.955 27.7064 30.0875 27.1988 30.4807C26.8793 30.7334 26.3718 30.7334 26.1274 30.49C25.9301 30.2935 25.8737 29.7974 26.0335 29.6944C26.2496 29.554 26.0993 29.4604 25.6575 29.4604H25.1782L25.432 29.9003C26.0147 30.9206 26.5598 31.1639 27.3492 30.7521C27.9225 30.4432 28.1951 30.022 28.1951 29.4324C28.1951 28.7304 28.0259 28.3092 27.509 27.7101C26.7853 26.8678 26.6913 26.6712 26.6913 26.0628C26.6913 25.651 26.7383 25.4825 26.8793 25.3421C27.1143 25.1081 27.6124 25.0894 27.6876 25.314C27.7158 25.4076 27.7721 25.5667 27.8097 25.6697C27.8849 25.8569 27.8849 25.8569 27.9789 25.6697C28.0353 25.5667 28.1105 25.2859 28.1387 25.0332C28.2139 24.5652 28.1105 24.4623 27.8849 24.7711Z" fill="#9C0746"/>
<path d="M66.8125 24.7898C66.7279 24.9583 66.6434 24.977 66.352 24.9395C65.9385 24.8834 65.3746 25.108 65.0551 25.4543C64.3784 26.1938 64.6227 27.5322 65.5814 28.3184C66.0889 28.7303 66.3426 29.2451 66.352 29.8535C66.352 30.2185 66.305 30.3215 66.1077 30.4806C65.7881 30.7333 65.2806 30.7333 65.0363 30.4899C64.8389 30.2934 64.7825 29.7973 64.9423 29.6943C65.1584 29.5633 65.0081 29.4604 64.5757 29.4604H64.1152L64.3878 29.9564C64.9141 30.9299 65.478 31.1638 66.258 30.752C66.8407 30.4338 67.1039 30.0219 67.1039 29.4229C67.1039 28.6648 66.9441 28.281 66.3614 27.6071C65.6659 26.8021 65.6002 26.6711 65.6002 26.0721C65.6002 25.445 65.8257 25.1548 66.305 25.1548C66.587 25.1548 66.634 25.1922 66.634 25.3607C66.634 25.4824 66.6716 25.6322 66.7185 25.707C66.8313 25.8849 66.9723 25.6134 67.0569 25.0331C67.1321 24.5558 67.0099 24.4341 66.8125 24.7898Z" fill="#9C0746"/>
<path d="M16.0716 24.7804C14.5867 24.8459 14.2201 25.0612 13.8254 26.1282C13.5623 26.8396 13.4871 27.6445 13.6093 28.5056C13.722 29.3106 13.9476 29.7786 14.3893 30.1342C14.7088 30.3869 14.7276 30.3963 15.1788 30.2653C15.4419 30.1997 15.7145 30.1249 15.7896 30.1062C15.9118 30.0781 15.9212 30.3214 15.9024 31.9875C15.8836 33.0452 15.846 33.9811 15.8272 34.0654C15.799 34.1496 15.6863 34.2339 15.5735 34.2526C15.4419 34.2713 15.3573 34.3555 15.3385 34.4772C15.3103 34.6738 15.3385 34.6831 16.0904 34.655C16.7953 34.627 17.3873 34.5053 17.3873 34.3836C17.3873 34.3555 17.2652 34.2713 17.1054 34.1871L16.8235 34.0467L16.8798 32.8018C16.908 32.1279 16.9644 30.1623 17.002 28.4588C17.0678 25.6134 17.0866 25.3233 17.2464 25.1548C17.5565 24.8085 17.2934 24.7242 16.0716 24.7804ZM16.034 25.3888C16.128 25.7538 15.9306 29.3012 15.799 29.5352C15.6393 29.8347 15.2727 30.05 15.0378 29.9751C14.925 29.9377 14.7746 29.7692 14.6901 29.5914C14.5491 29.3012 14.5397 29.0859 14.6431 27.3731C14.7746 25.2109 14.7934 25.1548 15.5641 25.1548C15.9212 25.1548 15.9776 25.1829 16.034 25.3888Z" fill="#9C0746"/>
<path d="M36.56 24.8553C36.0807 25.1174 35.6484 25.7258 35.4229 26.4839C35.2443 27.0642 35.2255 27.2982 35.2725 28.3746C35.3289 29.9284 35.5356 30.5555 36.1089 30.9299C36.4003 31.1264 36.607 31.1826 37.0018 31.1826C37.4623 31.1919 37.5375 31.1639 37.7442 30.9111C37.998 30.5929 38.1108 30.2279 38.1953 29.4323C38.2423 28.9924 38.2235 28.8801 38.1014 28.8333C37.8664 28.749 37.716 28.9549 37.857 29.1796C38.1859 29.7037 37.6972 30.8643 37.1521 30.8643C36.4755 30.8643 36.2311 30.2653 36.2311 28.5525C36.2311 27.8785 36.2593 27.2982 36.2969 27.2608C36.3345 27.2234 36.8044 27.1859 37.3589 27.1672C37.9134 27.1485 38.3927 27.111 38.4209 27.0736C38.4585 27.0362 38.4867 26.6805 38.4867 26.278C38.4867 25.679 38.4491 25.4918 38.2893 25.2765C37.904 24.7617 37.0957 24.5652 36.56 24.8553ZM37.8006 25.1735C37.8852 25.3139 37.904 26.1376 37.8194 26.5494L37.763 26.8396H37.0582H36.3533L36.4191 26.4465C36.5131 25.8943 36.7198 25.3327 36.9172 25.1267C37.0394 24.9957 37.1521 24.9676 37.3965 25.0051C37.5751 25.0331 37.7536 25.108 37.8006 25.1735Z" fill="#9C0746"/>
<path d="M54.9805 25.0891C54.6986 25.2389 54.5012 25.4355 54.3508 25.7163C54.1065 26.1749 54.0595 26.7458 54.2662 26.7458C54.4354 26.7458 54.5012 26.5586 54.4448 26.2498C54.379 25.9035 55.0181 25.2483 55.4222 25.2483C55.9861 25.2483 56.3245 25.6975 56.4372 26.5867L56.503 27.139L56.2211 27.0734C55.9203 27.0173 54.9335 27.2326 54.5012 27.4572C54.1065 27.6538 53.8433 28.103 53.7305 28.7582C53.646 29.2636 53.6554 29.4415 53.7869 29.872C54.1441 30.9765 55.0181 31.1731 55.9861 30.3588C56.2681 30.1248 56.2963 30.1154 56.3526 30.2745C56.4842 30.6863 56.6252 30.8642 56.9353 31.0139C57.2267 31.1543 57.3019 31.1543 57.5086 31.042C57.7718 30.8923 58.0349 30.5366 58.1289 30.2277C58.2229 29.8908 58.0161 29.9937 57.8282 30.3681C57.7154 30.6021 57.5932 30.7238 57.471 30.7238C57.2643 30.7238 57.2643 30.9016 57.3395 27.6818C57.3771 26.3434 57.3583 26.1 57.2079 25.8379C56.9541 25.3606 56.5782 25.0798 56.0895 24.9675C55.4692 24.8364 55.441 24.8458 54.9805 25.0891ZM56.4372 27.504C56.4372 27.5789 56.3996 28.0937 56.3526 28.6646L56.2775 29.6942L55.8733 30.078C55.0651 30.8548 54.7549 30.6302 54.7549 29.2449C54.7549 28.5336 54.7925 28.2996 54.9711 27.9345C55.2249 27.4291 55.2718 27.3917 55.7324 27.3074C56.1271 27.2326 56.4372 27.3262 56.4372 27.504Z" fill="#9C0746"/>
<path d="M18.1109 25.0424C17.7726 25.0799 17.8289 25.2764 18.1955 25.3419L18.468 25.3887L18.4774 27.3262C18.4962 29.4509 18.5996 30.0593 19.0413 30.5741C19.4924 31.1076 20.1033 30.883 20.5356 30.0125C20.7988 29.4977 20.9586 29.4228 20.9586 29.8066C20.968 30.1529 21.2875 30.8549 21.4755 30.9204C21.6916 31.0047 22.0206 30.8081 22.2085 30.4899C22.3965 30.181 22.4153 29.8908 22.2555 29.9563C22.1897 29.9751 22.1427 30.0499 22.1615 30.1061C22.2085 30.3307 21.983 30.5835 21.7386 30.5835H21.4943L21.5507 29.7598C21.5789 29.3105 21.7104 28.2248 21.8514 27.3543C22.2179 25.0705 22.2273 25.2109 21.6728 25.1735C21.4191 25.1547 21.1747 25.1828 21.1277 25.2296C21.0807 25.2764 20.9962 26.0907 20.9492 27.0361C20.9022 27.9814 20.8176 28.908 20.7706 29.0952C20.6578 29.4977 20.0657 30.3027 19.8778 30.3027C19.5958 30.3027 19.577 29.7504 19.671 25.7631L19.6898 25.0143H19.0319C18.6748 25.0143 18.2519 25.0237 18.1109 25.0424Z" fill="#9C0746"/>
<path d="M23.0446 26.1C22.8473 28.103 22.9319 29.9282 23.242 30.5834C23.3078 30.7051 23.4676 30.8548 23.6085 30.9016C23.8341 30.9765 23.9093 30.9578 24.1442 30.7332C24.6236 30.2839 24.9149 28.8518 24.5296 28.8518C24.4168 28.8518 24.398 28.9454 24.4168 29.2824C24.4356 29.5351 24.3886 29.8627 24.2946 30.078C24.1536 30.4149 24.1348 30.4336 24.0127 30.2745C23.7871 29.9657 23.7401 28.5898 23.8999 26.802C23.9845 25.8754 24.0409 25.0985 24.0127 25.0798C23.9939 25.0611 23.7871 25.0143 23.5616 24.9956L23.1574 24.9488L23.0446 26.1Z" fill="#9C0746"/>
<path d="M29.154 26.1C28.9567 28.103 29.0412 29.9282 29.3514 30.5834C29.4172 30.7051 29.5769 30.8548 29.7179 30.9016C29.9435 30.9765 30.0187 30.9578 30.2536 30.7332C30.7329 30.2839 31.0243 28.8518 30.6389 28.8518C30.5262 28.8518 30.5074 28.9454 30.5262 29.2824C30.545 29.5351 30.498 29.8627 30.404 30.078C30.263 30.4149 30.2442 30.4336 30.122 30.2745C29.8965 29.9657 29.8495 28.5898 30.0093 26.802C30.0938 25.8754 30.1502 25.0985 30.122 25.0798C30.1032 25.0611 29.8965 25.0143 29.6709 24.9956L29.2668 24.9488L29.154 26.1Z" fill="#9C0746"/>
<path d="M58.6644 26.1002C58.3731 29.0954 58.655 30.958 59.3881 30.958C59.905 30.958 60.5629 29.3949 60.2527 28.9082C60.1023 28.6742 59.9802 28.8895 60.0272 29.3013C60.0553 29.554 60.0178 29.8348 59.9144 30.0688C59.7734 30.4151 59.7546 30.4339 59.6324 30.2747C59.3975 29.9565 59.3599 28.59 59.5196 26.8022C59.6042 25.8756 59.6606 25.1081 59.6324 25.08C59.6136 25.0613 59.4069 25.0145 59.1813 24.9958L58.7772 24.949L58.6644 26.1002Z" fill="#9C0746"/>
<path d="M60.7134 25.1547C60.7134 25.2951 60.7698 25.3419 60.9765 25.3419H61.2491L61.2679 27.8691L61.2867 30.3963L61.0517 30.4899C60.7886 30.5835 60.7322 30.7332 60.9201 30.7894C60.9859 30.8175 61.2303 30.7987 61.4558 30.7519C61.7002 30.7051 62.0103 30.7145 62.1983 30.7707C62.3769 30.8175 62.5648 30.8362 62.6118 30.8081C62.7528 30.7239 62.687 30.5835 62.4802 30.4992C62.2641 30.415 62.2641 30.415 62.2641 28.1967V25.9784L62.5366 25.7538C62.7058 25.604 62.8938 25.5291 63.0535 25.5478C63.2697 25.5759 63.3073 25.6321 63.3825 26.0439C63.4953 26.7366 63.5423 26.8302 63.6268 26.5587C63.7396 26.203 63.7396 25.0611 63.6268 25.0611C63.5798 25.0611 63.5329 25.1173 63.5329 25.1922C63.5329 25.2764 63.4013 25.3139 63.0911 25.3139C62.8374 25.3139 62.5554 25.3419 62.4521 25.3794C62.3111 25.4262 62.2453 25.3887 62.1701 25.2296C62.0855 25.0331 62.0009 25.0143 61.3995 24.9863C60.7604 24.9582 60.7134 24.9769 60.7134 25.1547Z" fill="#9C0746"/>
<path d="M8.4684 25.2204C8.33682 25.314 8.38381 25.3608 8.75974 25.5292C9.03229 25.6416 9.26725 25.8288 9.34243 25.9785C9.58679 26.4652 10.2447 28.1126 10.2447 28.2623C10.2447 28.3372 10.0285 28.7397 9.76536 29.1328C9.5022 29.5353 9.24845 29.9658 9.20146 30.0875C9.15447 30.1998 8.9947 30.3777 8.83493 30.4713C8.48719 30.6865 8.55298 30.7708 9.09808 30.7708C9.47401 30.7708 9.5116 30.752 9.46461 30.5742C9.38943 30.2841 10.1977 28.7116 10.4326 28.7116C10.4702 28.7116 10.6582 29.0954 10.8462 29.5633C11.1751 30.3777 11.1845 30.4245 11.0341 30.5929C10.9401 30.6959 10.8931 30.7895 10.9119 30.8082C10.9589 30.8456 12.2935 30.7052 12.4721 30.6397C12.6506 30.5649 12.6224 30.4245 12.4157 30.3683C12.2935 30.3402 12.0867 29.9284 11.7014 28.955L11.1469 27.5884L11.5134 26.8583C12.0209 25.8662 12.2559 25.5573 12.5942 25.4824C12.754 25.445 12.8668 25.3701 12.848 25.314C12.8104 25.1829 12.0679 25.0238 11.8706 25.0987C11.739 25.1548 11.739 25.1736 11.8706 25.3233C12.0115 25.4824 11.9927 25.548 11.5886 26.2593C11.3537 26.6805 11.1093 27.0268 11.0435 27.0268C10.9495 27.0268 10.4326 25.7258 10.4326 25.5012C10.4326 25.4637 10.5172 25.4356 10.63 25.4356C10.7616 25.4356 10.8086 25.3888 10.7898 25.2672C10.7616 25.1268 10.63 25.108 9.69017 25.108C9.0135 25.108 8.56238 25.1455 8.4684 25.2204Z" fill="#9C0746"/>
</svg>
