<svg width="154" height="103" viewBox="0 0 154 103" fill="none" xmlns="http://www.w3.org/2000/svg">
<path d="M153.23 4.16735C153.417 3.96428 153.404 3.64796 153.201 3.46083L149.892 0.411349C149.689 0.224219 149.372 0.237135 149.185 0.440201C148.998 0.64327 149.011 0.959591 149.214 1.14672L152.156 3.85737L149.445 6.79887C149.258 7.00193 149.271 7.31825 149.474 7.50538C149.677 7.69251 149.993 7.67959 150.18 7.47652L153.23 4.16735ZM61.8514 26.7463L62.3484 26.6914L62.3476 26.6844L61.8514 26.7463ZM70.7097 29.9332L70.4212 29.5248L70.231 29.6592L70.2114 29.8913L70.7097 29.9332ZM68.5893 21.7505L68.7834 22.2114L68.5893 21.7505ZM62.5177 32.7729L62.0207 32.8278L62.5177 32.7729ZM54.9182 27.5071L55.1123 27.968L54.9182 27.5071ZM61.4865 23.8227L60.9904 23.8846L61.4865 23.8227ZM75.7793 7.47712L152.883 4.3281L152.842 3.32894L75.7385 6.47795L75.7793 7.47712ZM1.56701 102.98L48.7263 33.2115L47.8978 32.6515L0.73852 102.42L1.56701 102.98ZM55.1123 27.968L68.7834 22.2114L68.3953 21.2897L54.7242 27.0463L55.1123 27.968ZM63.0147 32.7179L62.3484 26.6914L61.3544 26.8013L62.0207 32.8278L63.0147 32.7179ZM62.3476 26.6844L61.9827 23.7608L60.9904 23.8846L61.3553 26.8083L62.3476 26.6844ZM72.1611 28.2957L70.4212 29.5248L70.9982 30.3416L72.7381 29.1124L72.1611 28.2957ZM70.2114 29.8913L69.9811 32.6269L70.9776 32.7108L71.2079 29.9751L70.2114 29.8913ZM68.7834 22.2114C72.6422 20.5865 75.5809 25.8798 72.1611 28.2957L72.7381 29.1124C77.1349 26.0063 73.3567 19.2006 68.3953 21.2897L68.7834 22.2114ZM62.0207 32.8278C62.619 38.2391 70.5209 38.1358 70.9776 32.7108L69.9811 32.6269C69.6259 36.8464 63.48 36.9267 63.0147 32.7179L62.0207 32.8278ZM48.7263 33.2115C50.3013 30.8813 52.5201 29.0595 55.1123 27.968L54.7242 27.0463C51.9532 28.2131 49.5815 30.1606 47.8978 32.6515L48.7263 33.2115ZM75.7385 6.47795C66.6767 6.84805 59.8672 14.8851 60.9904 23.8846L61.9827 23.7608C60.932 15.3418 67.3022 7.82334 75.7793 7.47712L75.7385 6.47795Z" fill="black"/>
</svg>
