<svg width="157" height="98" viewBox="0 0 157 98" fill="none" xmlns="http://www.w3.org/2000/svg">
<path d="M0.155338 92.9663C-0.0404754 93.161 -0.0413688 93.4776 0.153348 93.6734L3.32636 96.8643C3.52107 97.0601 3.83765 97.061 4.03346 96.8663C4.22927 96.6716 4.23017 96.355 4.03545 96.1592L1.21499 93.3228L4.05138 90.5024C4.24719 90.3077 4.24807 89.9911 4.05337 89.7953C3.85865 89.5995 3.54206 89.5986 3.34625 89.7933L0.155338 92.9663ZM92.4317 74.3947L91.9328 74.4279L91.9334 74.4349L92.4317 74.3947ZM83.7209 70.8244L83.9913 71.245L84.1872 71.1191L84.2168 70.8881L83.7209 70.8244ZM85.4823 79.0918L85.3086 78.623L85.4823 79.0918ZM92.029 68.3448L92.5278 68.3116L92.029 68.3448ZM99.3915 73.937L99.2178 73.4682L99.3915 73.937ZM92.6687 77.3314L93.1671 77.2912L92.6687 77.3314ZM77.6765 93.038L0.509295 92.8208L0.50649 93.8208L77.6737 94.038L77.6765 93.038ZM155.984 0.862654L105.826 68.5082L106.63 69.1038L156.787 1.45827L155.984 0.862654ZM99.2178 73.4682L85.3086 78.623L85.6561 79.5606L99.5653 74.4058L99.2178 73.4682ZM91.5301 68.378L91.9328 74.4279L92.9306 74.3615L92.5278 68.3116L91.5301 68.378ZM91.9334 74.4349L92.1704 77.3717L93.1671 77.2912L92.9301 74.3544L91.9334 74.4349ZM82.1994 72.3971L83.9913 71.245L83.4505 70.4039L81.6586 71.5559L82.1994 72.3971ZM84.2168 70.8881L84.5662 68.1651L83.5744 68.0378L83.225 70.7608L84.2168 70.8881ZM85.3086 78.623C81.3825 80.078 78.6776 74.6615 82.1994 72.3971L81.6586 71.5559C77.1305 74.4673 80.6083 81.4314 85.6561 79.5606L85.3086 78.623ZM92.5278 68.3116C92.1662 62.8794 84.2673 62.6378 83.5744 68.0378L84.5662 68.1651C85.1052 63.9651 91.2488 64.153 91.5301 68.378L92.5278 68.3116ZM105.826 68.5082C104.151 70.7675 101.855 72.4908 99.2178 73.4682L99.5653 74.4058C102.384 73.361 104.839 71.5189 106.63 69.1038L105.826 68.5082ZM77.6737 94.038C86.7431 94.0635 93.8967 86.3312 93.1671 77.2912L92.1704 77.3717C92.8529 85.8284 86.1608 93.0619 77.6765 93.038L77.6737 94.038Z" fill="black"/>
</svg>
