<svg id="visual" viewBox="0 0 960 600" width="960" height="600" xmlns="http://www.w3.org/2000/svg" xmlns:xlink="http://www.w3.org/1999/xlink" version="1.1"><path d="M0 226L5.2 210.2C10.3 194.3 20.7 162.7 31 163.7C41.3 164.7 51.7 198.3 62 248.7C72.3 299 82.7 366 93 342.7C103.3 319.3 113.7 205.7 124 217.3C134.3 229 144.7 366 155 423.3C165.3 480.7 175.7 458.3 186 418.7C196.3 379 206.7 322 217 280.5C227.3 239 237.7 213 248 238C258.3 263 268.7 339 279 369.2C289.3 399.3 299.7 383.7 310 329.5C320.3 275.3 330.7 182.7 341 194.5C351.3 206.3 361.7 322.7 372 328C382.3 333.3 392.7 227.7 403 179.3C413.3 131 423.7 140 434 189.2C444.3 238.3 454.7 327.7 464.8 337.3C475 347 485 277 495.2 260.7C505.3 244.3 515.7 281.7 526 288.2C536.3 294.7 546.7 270.3 557 268.3C567.3 266.3 577.7 286.7 588 264C598.3 241.3 608.7 175.7 619 152C629.3 128.3 639.7 146.7 650 191.8C660.3 237 670.7 309 681 363.7C691.3 418.3 701.7 455.7 712 457.3C722.3 459 732.7 425 743 397.8C753.3 370.7 763.7 350.3 774 360.5C784.3 370.7 794.7 411.3 805 372.3C815.3 333.3 825.7 214.7 836 212.3C846.3 210 856.7 324 867 365.8C877.3 407.7 887.7 377.3 898 322.5C908.3 267.7 918.7 188.3 929 178.7C939.3 169 949.7 229 954.8 259L960 289L960 0L954.8 0C949.7 0 939.3 0 929 0C918.7 0 908.3 0 898 0C887.7 0 877.3 0 867 0C856.7 0 846.3 0 836 0C825.7 0 815.3 0 805 0C794.7 0 784.3 0 774 0C763.7 0 753.3 0 743 0C732.7 0 722.3 0 712 0C701.7 0 691.3 0 681 0C670.7 0 660.3 0 650 0C639.7 0 629.3 0 619 0C608.7 0 598.3 0 588 0C577.7 0 567.3 0 557 0C546.7 0 536.3 0 526 0C515.7 0 505.3 0 495.2 0C485 0 475 0 464.8 0C454.7 0 444.3 0 434 0C423.7 0 413.3 0 403 0C392.7 0 382.3 0 372 0C361.7 0 351.3 0 341 0C330.7 0 320.3 0 310 0C299.7 0 289.3 0 279 0C268.7 0 258.3 0 248 0C237.7 0 227.3 0 217 0C206.7 0 196.3 0 186 0C175.7 0 165.3 0 155 0C144.7 0 134.3 0 124 0C113.7 0 103.3 0 93 0C82.7 0 72.3 0 62 0C51.7 0 41.3 0 31 0C20.7 0 10.3 0 5.2 0L0 0Z" fill="#FDE5EA" stroke-linecap="round" stroke-linejoin="miter"></path></svg>