<svg width="1440" height="924" viewBox="0 0 1440 924" fill="none" xmlns="http://www.w3.org/2000/svg">
<path d="M0 0H1440V779.379C1440 782.116 1439.67 784.844 1439.01 787.501C1429.43 826.384 1373.32 823.846 1367.28 784.256L1349.59 668.248C1345.63 642.226 1311.83 634.525 1296.98 656.259L1243.07 735.161C1222.91 764.661 1177.85 759.104 1165.47 725.59L1109.49 574.154C1099.69 547.613 1060.85 552.119 1057.37 580.201L1023.79 851.833C1018.89 891.427 962.18 893.305 954.675 854.122L902.542 581.921C897.198 554.019 858.498 550.893 848.744 577.574L817.877 662.008C805.682 695.367 761.026 701.275 740.576 672.234L707.948 625.899C695.655 608.441 668.919 611.487 660.866 631.262L626.722 715.117C620.848 729.543 600.667 730.205 593.861 716.196L549.897 625.713C540.924 607.244 514.086 608.896 507.446 628.326L498.5 654.5L476.516 893.151C473.057 930.693 419.498 934.02 411.421 897.194L359.259 659.373C356.285 645.815 338.621 642.246 330.616 653.586C309.416 683.619 301.046 720.857 307.354 757.073L310.286 773.91C313.654 793.242 286.129 800.726 279.243 782.35L204.233 582.158C199.298 568.988 180.246 570.334 177.212 584.067L154.991 684.645C150.661 704.246 123.379 705.962 116.627 687.057L107.354 661.092C105.788 656.707 103.812 652.48 101.452 648.466C87.761 625.179 52.0121 636.223 53.8412 663.174L61.0415 769.274C62.5675 791.759 52.2211 813.404 33.7652 826.338C19.5475 836.301 0 826.13 0 808.769V0Z" fill="#FDE5EA"/>
</svg>
