<svg id="visual" viewBox="0 0 900 450" width="900" height="450" xmlns="http://www.w3.org/2000/svg" xmlns:xlink="http://www.w3.org/1999/xlink" version="1.1"><path d="M0 109L4.8 93.7C9.7 78.3 19.3 47.7 29 46.7C38.7 45.7 48.3 74.3 58 87.7C67.7 101 77.3 99 87 86.5C96.7 74 106.3 51 116 54.2C125.7 57.3 135.3 86.7 145 101.7C154.7 116.7 164.3 117.3 174 108.7C183.7 100 193.3 82 203 83.8C212.7 85.7 222.3 107.3 232 107C241.7 106.7 251.3 84.3 261 67.3C270.7 50.3 280.3 38.7 290 45.7C299.7 52.7 309.3 78.3 319 100C328.7 121.7 338.3 139.3 348 141.7C357.7 144 367.3 131 377 131.3C386.7 131.7 396.3 145.3 406 126.5C415.7 107.7 425.3 56.3 435.2 57.7C445 59 455 113 464.8 140.7C474.7 168.3 484.3 169.7 494 160.7C503.7 151.7 513.3 132.3 523 127.5C532.7 122.7 542.3 132.3 552 131.2C561.7 130 571.3 118 581 116.3C590.7 114.7 600.3 123.3 610 126.2C619.7 129 629.3 126 639 115C648.7 104 658.3 85 668 65.3C677.7 45.7 687.3 25.3 697 26.3C706.7 27.3 716.3 49.7 726 68.7C735.7 87.7 745.3 103.3 755 115.3C764.7 127.3 774.3 135.7 784 141.5C793.7 147.3 803.3 150.7 813 144.8C822.7 139 832.3 124 842 115.3C851.7 106.7 861.3 104.3 871 108.5C880.7 112.7 890.3 123.3 895.2 128.7L900 134L900 0L895.2 0C890.3 0 880.7 0 871 0C861.3 0 851.7 0 842 0C832.3 0 822.7 0 813 0C803.3 0 793.7 0 784 0C774.3 0 764.7 0 755 0C745.3 0 735.7 0 726 0C716.3 0 706.7 0 697 0C687.3 0 677.7 0 668 0C658.3 0 648.7 0 639 0C629.3 0 619.7 0 610 0C600.3 0 590.7 0 581 0C571.3 0 561.7 0 552 0C542.3 0 532.7 0 523 0C513.3 0 503.7 0 494 0C484.3 0 474.7 0 464.8 0C455 0 445 0 435.2 0C425.3 0 415.7 0 406 0C396.3 0 386.7 0 377 0C367.3 0 357.7 0 348 0C338.3 0 328.7 0 319 0C309.3 0 299.7 0 290 0C280.3 0 270.7 0 261 0C251.3 0 241.7 0 232 0C222.3 0 212.7 0 203 0C193.3 0 183.7 0 174 0C164.3 0 154.7 0 145 0C135.3 0 125.7 0 116 0C106.3 0 96.7 0 87 0C77.3 0 67.7 0 58 0C48.3 0 38.7 0 29 0C19.3 0 9.7 0 4.8 0L0 0Z" fill="#0066FF" stroke-linecap="round" stroke-linejoin="miter"></path></svg>