<svg id="visual" viewBox="0 0 960 300" width="960" height="300" xmlns="http://www.w3.org/2000/svg" xmlns:xlink="http://www.w3.org/1999/xlink" version="1.1"><path d="M0 64L5.2 88.3C10.3 112.7 20.7 161.3 31 168C41.3 174.7 51.7 139.3 62 119.5C72.3 99.7 82.7 95.3 93 101.7C103.3 108 113.7 125 124 139.2C134.3 153.3 144.7 164.7 155 170.5C165.3 176.3 175.7 176.7 186 174.7C196.3 172.7 206.7 168.3 217 157C227.3 145.7 237.7 127.3 248 128.8C258.3 130.3 268.7 151.7 279 152.2C289.3 152.7 299.7 132.3 310 129.3C320.3 126.3 330.7 140.7 341 147C351.3 153.3 361.7 151.7 372 140.3C382.3 129 392.7 108 403 116.5C413.3 125 423.7 163 434 187.7C444.3 212.3 454.7 223.7 464.8 224.8C475 226 485 217 495.2 187.7C505.3 158.3 515.7 108.7 526 112.5C536.3 116.3 546.7 173.7 557 191.5C567.3 209.3 577.7 187.7 588 171.2C598.3 154.7 608.7 143.3 619 126.8C629.3 110.3 639.7 88.7 650 106.2C660.3 123.7 670.7 180.3 681 203.2C691.3 226 701.7 215 712 199.7C722.3 184.3 732.7 164.7 743 159.5C753.3 154.3 763.7 163.7 774 160.7C784.3 157.7 794.7 142.3 805 130.2C815.3 118 825.7 109 836 119.7C846.3 130.3 856.7 160.7 867 155.3C877.3 150 887.7 109 898 101.8C908.3 94.7 918.7 121.3 929 128C939.3 134.7 949.7 121.3 954.8 114.7L960 108L960 0L954.8 0C949.7 0 939.3 0 929 0C918.7 0 908.3 0 898 0C887.7 0 877.3 0 867 0C856.7 0 846.3 0 836 0C825.7 0 815.3 0 805 0C794.7 0 784.3 0 774 0C763.7 0 753.3 0 743 0C732.7 0 722.3 0 712 0C701.7 0 691.3 0 681 0C670.7 0 660.3 0 650 0C639.7 0 629.3 0 619 0C608.7 0 598.3 0 588 0C577.7 0 567.3 0 557 0C546.7 0 536.3 0 526 0C515.7 0 505.3 0 495.2 0C485 0 475 0 464.8 0C454.7 0 444.3 0 434 0C423.7 0 413.3 0 403 0C392.7 0 382.3 0 372 0C361.7 0 351.3 0 341 0C330.7 0 320.3 0 310 0C299.7 0 289.3 0 279 0C268.7 0 258.3 0 248 0C237.7 0 227.3 0 217 0C206.7 0 196.3 0 186 0C175.7 0 165.3 0 155 0C144.7 0 134.3 0 124 0C113.7 0 103.3 0 93 0C82.7 0 72.3 0 62 0C51.7 0 41.3 0 31 0C20.7 0 10.3 0 5.2 0L0 0Z" fill="#FDE5EA" stroke-linecap="round" stroke-linejoin="miter"></path></svg>